<?xml version="1.0" encoding="utf-8"?>
<!-- Generator: Adobe Illustrator 19.2.1, SVG Export Plug-In . SVG Version: 6.00 Build 0)  -->
<svg version="1.1" id="Capa_1" xmlns="http://www.w3.org/2000/svg" xmlns:xlink="http://www.w3.org/1999/xlink" x="0px" y="0px"
	 viewBox="0 0 26.1 32" style="enable-background:new 0 0 26.1 32;" xml:space="preserve">
<style type="text/css">
	.st0{fill:#212121;}
</style>
<g>
	<g>
		<path class="st0" d="M21.8,17.9c-0.9-4.4,3.3-7,3.3-7s-1.6-2.4-4.4-3s-4.1,0.2-5.5,0.7c-1.4,0.6-2.1,0.6-2.1,0.6
			c-2,0-3.4-2.1-7.2-1.1c-2.6,0.7-5.4,3.7-5.8,7.3c-0.5,3.6,0.6,8.2,2.6,11.7C4.8,30.6,6.9,32,8.4,32s3-1.1,4.8-1.3
			c1.8-0.3,2.9,0.7,4.7,1.1c1.8,0.5,2.4,0,4.4-1.7s3.9-6.7,3.9-6.7S22.7,22.4,21.8,17.9z"/>
		<path class="st0" d="M17.9,5.1c1.9-2,1.3-5.1,1.3-5.1s-2.7,0.5-4.6,2.4c-1.8,1.9-1.5,4.9-1.5,4.9S16,7,17.9,5.1z"/>
	</g>
</g>
</svg>
