<?xml version="1.0" encoding="utf-8"?>
<!-- Generator: Adobe Illustrator 19.2.1, SVG Export Plug-In . SVG Version: 6.00 Build 0)  -->
<svg version="1.1" id="Слой_1" xmlns="http://www.w3.org/2000/svg" xmlns:xlink="http://www.w3.org/1999/xlink" x="0px" y="0px"
	 viewBox="0 0 611.5 611.6" style="enable-background:new 0 0 611.5 611.6;" xml:space="preserve">
<style type="text/css">
	.st0{fill:#FFFFFF;}
</style>
<path id="Forma_1" class="st0" d="M514.3,3.7c-4.9-4.9-12.9-4.9-17.8,0L314.7,185.5c-4.9,4.9-12.9,4.9-17.8,0L115.1,3.7
	c-4.9-4.9-12.9-4.9-17.8,0L3.7,97.2c-4.9,4.9-4.9,12.9,0,17.8l181.8,181.8c4.9,4.9,4.9,12.9,0,17.8L3.7,496.5
	c-4.9,4.9-4.9,12.9,0,17.8l93.6,93.6c4.9,4.9,12.9,4.9,17.8,0l181.8-181.8c4.9-4.9,12.9-4.9,17.8,0l181.8,181.8
	c4.9,4.9,12.9,4.9,17.8,0l93.6-93.6c4.9-4.9,4.9-12.9,0-17.8L426.1,314.7c-4.9-4.9-4.9-12.9,0-17.8l181.8-181.8
	c4.9-4.9,4.9-12.9,0-17.8L514.3,3.7z"/>
</svg>
