<?xml version="1.0" encoding="utf-8"?>
<!-- Generator: Adobe Illustrator 19.2.1, SVG Export Plug-In . SVG Version: 6.00 Build 0)  -->
<svg version="1.1" id="Слой_1" xmlns="http://www.w3.org/2000/svg" xmlns:xlink="http://www.w3.org/1999/xlink" x="0px" y="0px"
	 viewBox="0 0 612.1 612.2" style="enable-background:new 0 0 612.1 612.2;" xml:space="preserve">
<style type="text/css">
	.st0{fill:#FFFFFF;}
</style>
<path id="Forma_1" class="st0" d="M367.6,128.3c-16-16-42-16.1-58.1,0c0,0,0,0,0,0l-14.5,14.5L91.5,346.4l0.1,0.1l-6.4,6.4
	c0,0-20.4,20.6-66.6,169.5c-0.3,1-0.6,2.1-1,3.1c-0.8,2.7-1.7,5.4-2.5,8.1c-0.7,2.4-1.5,4.9-2.3,7.4c-0.6,2.1-1.3,4.2-1.9,6.3
	c-1.5,4.9-2.9,9.8-4.5,15C3.2,573.6-4.9,599,4.2,608.1c8.8,8.8,34.5,1.1,45.7-2.3c5.1-1.5,10-3,14.9-4.4c2.2-0.7,4.4-1.3,6.6-2
	c2.3-0.7,4.7-1.4,7-2.1c2.9-0.9,5.7-1.8,8.5-2.6c0.8-0.3,1.7-0.5,2.5-0.8c141.7-44.1,167.2-64.8,169.3-66.7c0,0,0,0,0,0
	c0.1-0.1,0.2-0.1,0.2-0.1l6.6-6.6l0.4,0.4l203.4-203.5l0,0l14.5-14.5c16-16.1,16-42.1,0-58.2L367.6,128.3z M235.5,500.7
	c-0.2,0.1-0.4,0.3-0.7,0.4c-0.1,0.1-0.3,0.2-0.5,0.3s-0.4,0.2-0.6,0.3l-0.6,0.3c-6.8,4-26.6,14.5-74.8,31.9
	c-5.6,2-11.8,4.2-18.2,6.4l-68.5-68.6c2.2-6.5,4.4-12.6,6.4-18.3c17.4-48.4,27.8-68.3,31.9-75c0.1-0.2,0.2-0.3,0.3-0.5
	c0.1-0.2,0.3-0.4,0.4-0.6c0.1-0.2,0.2-0.3,0.3-0.5c0.2-0.3,0.3-0.5,0.4-0.7l5-5l124.2,124.3L235.5,500.7z M600,128.3L483.8,12
	c-16-16-42-16.1-58.1,0c0,0,0,0,0,0l-29.1,29.1c-16,16.1-16,42.1,0,58.2l116.2,116.3c16,16,42,16.1,58.1,0c0,0,0,0,0,0l29.1-29.1
	C616.1,170.4,616.1,144.4,600,128.3L600,128.3z"/>
</svg>
