<?xml version="1.0" encoding="utf-8"?>
<!-- Generator: Adobe Illustrator 19.2.1, SVG Export Plug-In . SVG Version: 6.00 Build 0)  -->
<svg version="1.1"
	 id="Layer_2" inkscape:version="0.48.2 r9819" sodipodi:docname="Google Play logo.svg" xmlns:cc="http://creativecommons.org/ns#" xmlns:dc="http://purl.org/dc/elements/1.1/" xmlns:inkscape="http://www.inkscape.org/namespaces/inkscape" xmlns:rdf="http://www.w3.org/1999/02/22-rdf-syntax-ns#" xmlns:sodipodi="http://sodipodi.sourceforge.net/DTD/sodipodi-0.dtd" xmlns:svg="http://www.w3.org/2000/svg"
	 xmlns="http://www.w3.org/2000/svg" xmlns:xlink="http://www.w3.org/1999/xlink" x="0px" y="0px" viewBox="0 0 120.9 129.2"
	 style="enable-background:new 0 0 120.9 129.2;" xml:space="preserve">
<style type="text/css">
	.st0{fill:url(#path16_1_);}
	.st1{fill:url(#path23_1_);}
	.st2{fill:url(#path30_1_);}
	.st3{fill:url(#path37_1_);}
</style>
<sodipodi:namedview  bordercolor="#666666" borderopacity="1" fit-margin-bottom="0" fit-margin-left="0" fit-margin-right="0" fit-margin-top="0" gridtolerance="10" guidetolerance="10" id="namedview51" inkscape:current-layer="Layer_2" inkscape:cx="296.25001" inkscape:cy="38.121093" inkscape:pageopacity="0" inkscape:pageshadow="2" inkscape:window-height="837" inkscape:window-maximized="1" inkscape:window-width="1600" inkscape:window-x="-8" inkscape:window-y="-8" inkscape:zoom="0.39645207" objecttolerance="10" pagecolor="#ffffff" showgrid="false">
	</sodipodi:namedview>
<linearGradient id="path16_1_" gradientUnits="userSpaceOnUse" x1="226.8587" y1="-152.5065" x2="210.54" y2="-120.4791" gradientTransform="matrix(1 0 0 -1 -124.695 -74.6006)">
	<stop  offset="0" style="stop-color:#FCD08F"/>
	<stop  offset="1" style="stop-color:#F79673"/>
</linearGradient>
<path id="path16" inkscape:connector-curvature="0" class="st0" d="M89.2,84.5c15.3-8.4,27-14.8,28-15.3c3.2-1.7,6.5-6.2,0-9.7
	c-2.1-1.1-13.4-7.3-28-15.3L69.1,64.4C69.1,64.4,89.2,84.5,89.2,84.5z"/>
<linearGradient id="path23_1_" gradientUnits="userSpaceOnUse" x1="203.1296" y1="-147.7385" x2="140.9948" y2="-214.3699" gradientTransform="matrix(1 0 0 -1 -124.695 -74.6006)">
	<stop  offset="0" style="stop-color:#E74047"/>
	<stop  offset="1" style="stop-color:#7F50A0"/>
</linearGradient>
<path id="path23" inkscape:connector-curvature="0" class="st1" d="M69.1,64.4L4.9,129.1c1.5,0.2,3.2-0.2,5.2-1.3
	c4.2-2.3,48.8-26.7,79.1-43.3C89.2,84.5,69.1,64.4,69.1,64.4z"/>
<linearGradient id="path30_1_" gradientUnits="userSpaceOnUse" x1="203.4607" y1="-129.6695" x2="140.3395" y2="-64.3056" gradientTransform="matrix(1 0 0 -1 -124.695 -74.6006)">
	<stop  offset="0" style="stop-color:#E6FFAB"/>
	<stop  offset="1" style="stop-color:#47BEBC"/>
</linearGradient>
<path id="path30" inkscape:connector-curvature="0" class="st2" d="M69.1,64.4l20.1-20.2c0,0-74.6-40.7-79.1-43.1
	C8.4,0.1,6.5-0.2,4.8,0.1L69.1,64.4z"/>
<linearGradient id="path37_1_" gradientUnits="userSpaceOnUse" x1="159.237" y1="-203.717" x2="159.237" y2="-74.75" gradientTransform="matrix(1 0 0 -1 -124.695 -74.6006)">
	<stop  offset="0" style="stop-color:#84E9DB"/>
	<stop  offset="1" style="stop-color:#197491"/>
</linearGradient>
<path id="path37" inkscape:connector-curvature="0" class="st3" d="M69.1,64.4L4.8,0.1C2.2,0.7,0,3,0,7.7c0,7.5,0,107.5,0,113.8
	c0,4.3,1.7,7.4,4.9,7.7L69.1,64.4z"/>
</svg>
