<?xml version="1.0" encoding="utf-8"?>
<!-- Generator: Adobe Illustrator 19.2.1, SVG Export Plug-In . SVG Version: 6.00 Build 0)  -->
<svg version="1.1" id="Layer_1" xmlns="http://www.w3.org/2000/svg" xmlns:xlink="http://www.w3.org/1999/xlink" x="0px" y="0px"
	 viewBox="0 0 137.3 145.4" style="enable-background:new 0 0 137.3 145.4;" xml:space="preserve">
<style type="text/css">
	.st0{fill:#FFFFFF;}
</style>
<path class="st0" d="M9.8,145.4c0.6-0.2,1.2-0.5,1.9-0.9l87.7-48L78.6,75.8L9.8,145.4L9.8,145.4z M103.3,94.5L81.6,72.8l21.7-21.9
	l29.8,16.3c7.3,4,3.6,9,0,11L103.3,94.5L103.3,94.5z M99.4,48.8L11.7,1c-0.9-0.5-2-0.8-3.1-1l69.9,69.8L99.4,48.8L99.4,48.8z
	 M3.5,0.9l72.1,72L3.9,145.4c-2.1-1.3-3.2-4.2-3.2-7.9C0.6,130.4,0,17.1,0,8.6C0,4.6,1.5,2.1,3.5,0.9z"/>
</svg>
