<?xml version="1.0" encoding="utf-8"?>
<!-- Generator: Adobe Illustrator 19.2.1, SVG Export Plug-In . SVG Version: 6.00 Build 0)  -->
<svg version="1.1" id="Слой_1" xmlns="http://www.w3.org/2000/svg" xmlns:xlink="http://www.w3.org/1999/xlink" x="0px" y="0px"
	 viewBox="0 0 528.8 528.5" style="enable-background:new 0 0 528.8 528.5;" xml:space="preserve">
<style type="text/css">
	.st0{fill:#F20D3B;}
	.st1{fill:#333333;}
</style>
<circle class="st0" cx="281.5" cy="242.1" r="191.1"/>
<g>
	<path class="st1" d="M339.7,527.9l-120.9-37c-5.2-1.6-9.1-5.8-10.4-11.1l-28.4-123.2c-1.2-5.3,0.5-10.8,4.4-14.5l92.5-86.2
		c4-3.7,9.6-5,14.8-3.4l120.9,37c5.2,1.6,9.1,5.8,10.4,11.1l28.4,123.2c1.2,5.3-0.5,10.8-4.4,14.5l-92.5,86.2
		C350.5,528.2,344.9,529.5,339.7,527.9z"/>
	<path class="st1" d="M4.8,149.5l92.5-86.2c4-3.7,9.6-5,14.8-3.4l120.9,37c5.2,1.6,9.1,5.8,10.4,11.1l28.4,123.2
		c1.2,5.3-0.5,10.8-4.4,14.5l-92.5,86.2c-4,3.7-9.6,5-14.8,3.4l-120.9-37c-5.2-1.6-9.1-5.8-10.4-11.1L0.4,164.1
		C-0.8,158.8,0.9,153.2,4.8,149.5z"/>
	<path class="st1" d="M499.9,48.7L528.4,172c1.2,5.3-0.5,10.8-4.4,14.5l-92.5,86.2c-4,3.7-9.6,5-14.8,3.4l-120.9-37
		c-5.2-1.6-9.1-5.8-10.4-11.1l-28.4-123.2c-1.2-5.3,0.5-10.8,4.4-14.5l92.5-86.2c4-3.7,9.6-5,14.8-3.4l120.9,37
		C494.7,39.2,498.7,43.5,499.9,48.7z"/>
</g>
<g>
	<path class="st1" d="M491.3,56.8L517,168.5c1.2,5.3-0.5,10.8-4.4,14.5l-83.8,78.2c-4,3.7-9.6,5-14.8,3.4l-109.6-33.5
		c-5.2-1.6-9.1-5.8-10.4-11.1l-25.8-111.7c-1.2-5.3,0.5-10.8,4.4-14.5l83.8-78.2c4-3.7,9.6-5,14.8-3.4l109.6,33.5
		C486.1,47.3,490,51.5,491.3,56.8z"/>
	<path class="st1" d="M16.1,153L100,74.8c4-3.7,9.6-5,14.8-3.4l109.6,33.5c5.2,1.6,9.1,5.8,10.4,11.1l25.8,111.7
		c1.2,5.3-0.5,10.8-4.4,14.5l-83.8,78.2c-4,3.7-9.6,5-14.8,3.4L47.8,290.3c-5.2-1.6-9.1-5.8-10.4-11.1L11.7,167.5
		C10.5,162.2,12.2,156.7,16.1,153z"/>
	<path class="st1" d="M337,516.3l-109.6-33.5c-5.2-1.6-9.1-5.8-10.4-11.1L191.3,360c-1.2-5.3,0.5-10.8,4.4-14.5l83.8-78.1
		c4-3.7,9.6-5,14.8-3.4l109.6,33.5c5.2,1.6,9.1,5.8,10.4,11.1L440,420.2c1.2,5.3-0.5,10.8-4.4,14.5l-83.8,78.1
		C347.8,516.6,342.2,517.9,337,516.3z"/>
</g>
</svg>
